<svg width="453" height="240" viewBox="0 0 453 240" fill="none" xmlns="http://www.w3.org/2000/svg">
<path d="M452.242 238.996H0.242188V239.996H452.242V238.996Z" fill="black" fill-opacity="0.1"/>
<path d="M292.482 237.537C301.889 237.591 309.073 229.16 307.513 219.884C305.27 206.576 302.398 189.15 301.13 180.015C298.919 163.965 290.261 152.056 277.896 146.28L237.507 129.797L227.732 132.083L217.957 129.797L177.557 146.28C164.965 152.403 156.534 163.965 154.323 180.015C153.066 189.15 150.184 206.576 147.94 219.884C146.38 229.16 153.565 237.591 162.971 237.537L227.721 237.136L292.482 237.537Z" fill="white" stroke="black" stroke-width="3" stroke-miterlimit="10"/>
<path fill-rule="evenodd" clip-rule="evenodd" d="M241.5 132L226.502 145L212.5 132" fill="white"/>
<path d="M241.5 132L226.502 145L212.5 132" stroke="black" stroke-width="3" stroke-miterlimit="10"/>
<path d="M226.5 145L215.5 154L200.5 136.5" stroke="black" stroke-width="3" stroke-miterlimit="10"/>
<path d="M227 145.5L237.312 154L253 136" stroke="black" stroke-width="3" stroke-miterlimit="10"/>
<path d="M220 151L226 146L232 151L238 214H214L220 151Z" fill="#0B9147" stroke="black" stroke-width="3" stroke-miterlimit="10"/>
<path d="M273.69 237H180.31C177.381 237 175 234.641 175 231.74V173.26C175 170.359 177.381 168 180.31 168H273.69C276.619 168 279 170.359 279 173.26V231.74C279 234.651 276.629 237 273.69 237Z" fill="white" stroke="black" stroke-width="3" stroke-miterlimit="10"/>
<g clip-path="url(#clip0_606_380)">
<path d="M237.952 204.257L226.199 211.111C226.157 211.137 226.129 211.184 226.129 211.232V214.988C226.129 215.073 226.201 215.137 226.286 215.129C226.489 215.107 226.689 215.043 226.87 214.938L237.37 208.883C237.835 208.616 238.121 208.12 238.121 207.584V204.352C238.121 204.265 238.026 204.211 237.952 204.255V204.257Z" fill="url(#paint0_linear_606_380)"/>
<path d="M226.87 214.937L229.805 213.245L217.865 206.317V196.121L214.58 194.474C214.29 194.754 214.121 195.14 214.121 195.553V207.583C214.121 208.119 214.407 208.615 214.872 208.882L225.372 214.937C225.835 215.205 226.407 215.205 226.87 214.937Z" fill="url(#paint1_linear_606_380)"/>
<path d="M226.87 188.202C226.407 187.934 225.835 187.934 225.372 188.202L214.872 194.254C214.407 194.522 214.121 195.018 214.121 195.553V198.967L226.137 192.067L234.093 196.643C234.28 196.75 234.51 196.75 234.695 196.643L237.887 194.812C237.988 194.754 237.988 194.611 237.887 194.552L226.87 188.202Z" fill="url(#paint2_linear_606_380)"/>
<path d="M226.673 200.825C227.439 200.825 228.129 200.515 228.631 200.013C229.13 199.512 229.443 198.819 229.443 198.056C229.443 197.292 229.132 196.599 228.631 196.098C228.129 195.598 227.437 195.286 226.673 195.286C225.91 195.286 225.217 195.596 224.715 196.098C224.216 196.597 223.904 197.292 223.904 198.056C223.904 198.819 224.214 199.512 224.715 200.013C225.217 200.515 225.91 200.825 226.673 200.825Z" fill="#465AFF"/>
<path d="M226.673 201.77C223.346 201.77 221.348 203.544 221.348 205.32C221.348 206.209 223.346 207.095 226.673 207.095C229.797 207.095 231.998 206.207 231.998 205.32C231.998 203.546 229.908 201.77 226.673 201.77Z" fill="#465AFF"/>
<path d="M226.673 200.825C227.439 200.825 228.129 200.515 228.631 200.013C229.13 199.512 229.443 198.819 229.443 198.056C229.443 197.292 229.132 196.599 228.631 196.098C228.129 195.598 227.437 195.286 226.673 195.286C225.91 195.286 225.217 195.596 224.715 196.098C224.216 196.597 223.904 197.292 223.904 198.056C223.904 198.819 224.214 199.512 224.715 200.013C225.217 200.515 225.91 200.825 226.673 200.825Z" fill="url(#paint3_linear_606_380)"/>
<path d="M226.673 201.77C223.346 201.77 221.348 203.544 221.348 205.32C221.348 206.209 223.346 207.095 226.673 207.095C229.797 207.095 231.998 206.207 231.998 205.32C231.998 203.546 229.908 201.77 226.673 201.77Z" fill="url(#paint4_linear_606_380)"/>
</g>
<path d="M196.278 111.742C199.374 111.324 201.36 107.101 200.714 102.308C200.068 97.5161 197.034 93.9694 193.938 94.3868C190.842 94.8042 188.856 99.0276 189.502 103.82C190.148 108.612 193.182 112.159 196.278 111.742Z" fill="white" stroke="black" stroke-width="3.28122" stroke-miterlimit="10"/>
<path d="M263.733 103.822C264.379 99.03 262.393 94.8067 259.297 94.3893C256.201 93.9719 253.167 97.5185 252.521 102.311C251.875 107.103 253.861 111.327 256.957 111.744C260.054 112.161 263.087 108.615 263.733 103.822Z" fill="white" stroke="black" stroke-width="3.28122" stroke-miterlimit="10"/>
<path d="M257.479 104.709C254.228 120.78 242.99 137.22 226.821 137.22C210.653 137.22 198.938 120.845 196.164 104.709C190.594 72.1985 209.883 63.334 226.821 63.334C243.759 63.334 263.049 77.1293 257.479 104.709Z" fill="white" stroke="black" stroke-width="3" stroke-miterlimit="10"/>
<path d="M234.277 121.191C233.486 122.882 230.755 124.627 226.821 124.627C222.887 124.627 220.048 122.904 219.365 121.191" fill="#FBFBFB"/>
<path d="M234.277 121.191C233.486 122.882 230.755 124.627 226.821 124.627C222.887 124.627 220.048 122.904 219.365 121.191" stroke="black" stroke-width="3" stroke-miterlimit="10" stroke-linecap="round" stroke-linejoin="round"/>
<path d="M229.988 112.002C229.489 112.836 228.362 113.584 226.823 113.584C225.328 113.584 224.19 112.88 223.691 112.078" fill="#FBFBFB"/>
<path d="M229.988 112.002C229.489 112.836 228.362 113.584 226.823 113.584C225.328 113.584 224.19 112.88 223.691 112.078" stroke="black" stroke-width="3" stroke-miterlimit="10" stroke-linecap="round" stroke-linejoin="round"/>
<path d="M212.917 100.244C214.144 100.244 215.138 99.2493 215.138 98.0223C215.138 96.7954 214.144 95.8008 212.917 95.8008C211.69 95.8008 210.695 96.7954 210.695 98.0223C210.695 99.2493 211.69 100.244 212.917 100.244Z" fill="black"/>
<path d="M240.725 100.244C241.952 100.244 242.947 99.2493 242.947 98.0223C242.947 96.7954 241.952 95.8008 240.725 95.8008C239.499 95.8008 238.504 96.7954 238.504 98.0223C238.504 99.2493 239.499 100.244 240.725 100.244Z" fill="black"/>
<path d="M258.5 98.5L251.415 90.2254C244.111 89.692 234.823 86.2114 232.636 82.3175C230.449 78.4236 232.42 78.637 226.129 75.7299C219.838 72.8228 210.28 77.3435 210.28 77.3435C205.893 92.0656 195.5 98.5 195.5 98.5C195 91.5 190.908 94.346 190.908 94.346C190.908 94.346 190.017 91.8923 189.112 84.0778C188.707 80.6373 189.45 77.2768 190.489 73.9696C192.177 68.5822 196.645 64.1149 202.099 62.4079C202.275 60.6743 203.314 58.9674 204.556 57.7539C205.798 56.5404 207.351 55.6469 208.917 54.8735C208.917 54.8735 214.627 50.8196 226.615 51.0063C233.365 51.0996 238.32 51.9397 243.45 53.7933C248.58 55.6469 262.012 64.8616 263.376 74.5697C264.739 84.2778 263.592 88.2651 262.566 94.426C262.566 94.4127 259 92.5 258.5 98.5Z" fill="black" stroke="black" stroke-width="2" stroke-miterlimit="10" stroke-linecap="round" stroke-linejoin="round"/>
<rect x="101.121" y="6" width="60" height="60" rx="30" fill="white"/>
<rect x="101.621" y="6.5" width="59" height="59" rx="29.5" stroke="black" stroke-opacity="0.1"/>
<g clip-path="url(#clip1_606_380)">
<path d="M116.137 43.5152C116.137 44.0287 116.411 44.5033 116.855 44.7601L130.691 52.7483C131.136 53.0051 131.684 53.0051 132.129 52.7483L145.965 44.7601C146.41 44.5033 146.684 44.0287 146.684 43.5152V27.5387C146.684 27.0252 146.41 26.5506 145.965 26.2938L132.129 18.3056C131.684 18.0488 131.136 18.0488 130.691 18.3056L116.855 26.2938C116.411 26.5506 116.137 27.0252 116.137 27.5387V43.5152Z" fill="#03C75A"/>
<path d="M122.741 34.3517C122.739 35.1773 123.345 36.2267 124.066 36.6427C124.305 36.7811 124.485 36.8026 124.556 36.7613C124.625 36.7218 124.695 36.56 124.696 36.2896L124.703 34.3337C124.703 34.2924 124.708 34.2502 124.715 34.2088C124.736 33.8243 124.813 33.225 125.062 32.5395C125.43 31.527 126.263 30.1111 128.14 29.112L132.838 26.4526L130.739 25.3125L125.466 28.4525C125.456 28.4579 125.446 28.4642 125.437 28.4696C124.267 29.0904 123.458 29.97 123.035 31.0841C122.713 31.9313 122.748 32.597 122.748 32.6033L122.741 34.3508V34.3517Z" fill="#54EF93"/>
<path d="M139.578 34.8452L139.584 31.2344L135.01 33.856C133.875 34.458 133.095 35.3088 132.691 36.3851C132.389 37.1892 132.417 37.8397 132.417 37.846C132.417 37.8595 132.418 37.872 132.418 37.8873L132.414 39.3509L139.475 35.2369C139.512 35.2154 139.578 35.0878 139.578 34.8443V34.8452Z" fill="#54EF93"/>
<path d="M131.535 48.5238C131.326 48.5238 131.186 48.4267 131.186 48.4267L122.813 43.5617C122.604 43.4404 122.473 43.214 122.473 42.9723L122.472 41.6768L118.83 43.7216L131.41 50.9846L144.797 43.2562V27.7977L131.41 20.0693L118.023 27.7977V42.533L122.226 40.1081L122.224 36.4398C121.847 35.9178 121.595 35.314 121.51 34.7345L121.507 34.7121C121.501 34.6716 121.498 34.6402 121.494 34.6087L121.491 34.5692C121.488 34.5387 121.486 34.509 121.484 34.4785L121.482 34.4416C121.481 34.4003 121.48 34.359 121.48 34.3177V34.2413L121.391 32.6349C121.384 32.4804 121.372 31.6709 121.731 30.6808C121.986 29.9818 122.517 28.9639 123.609 28.0834C123.944 27.813 124.315 27.5686 124.713 27.3575L130.145 24.1231C130.248 24.062 130.364 24.0287 130.484 24.0261C130.602 24.0234 130.721 24.053 130.826 24.1096L140.607 29.4221C140.618 29.4257 140.629 29.4293 140.641 29.4329L140.654 29.4373C140.668 29.4427 140.678 29.4472 140.689 29.4517L140.706 29.4598C140.716 29.4643 140.727 29.4697 140.737 29.4751L140.754 29.4841C140.77 29.493 140.782 29.5011 140.794 29.5092L140.803 29.5155C140.814 29.5227 140.827 29.5317 140.838 29.5407L140.849 29.5496C140.86 29.5586 140.869 29.5667 140.878 29.5748L140.89 29.5874C140.899 29.5955 140.908 29.6045 140.916 29.6134L140.926 29.6251C140.935 29.6359 140.945 29.6467 140.954 29.6584L140.959 29.6637C140.97 29.6772 140.979 29.6916 140.988 29.706L140.993 29.7141C141.002 29.7284 141.008 29.7392 141.014 29.75L141.023 29.7653C141.028 29.7761 141.033 29.7868 141.038 29.7976L141.045 29.8129C141.05 29.8255 141.056 29.8389 141.06 29.8524L141.064 29.8614C141.069 29.8767 141.074 29.8929 141.078 29.9099L141.081 29.9225C141.085 29.9369 141.087 29.9486 141.089 29.9611L141.092 29.9782C141.094 29.9908 141.095 30.0034 141.096 30.0168V30.0303C141.099 30.0492 141.1 30.0671 141.1 30.0851L141.093 34.8971C141.093 34.9277 141.091 34.9582 141.09 34.9879L141.087 35.0238C141.085 35.0508 141.084 35.0768 141.081 35.1029L141.076 35.1433C141.074 35.1676 141.07 35.1927 141.067 35.217L141.06 35.2556C141.056 35.2826 141.05 35.3086 141.045 35.3347L141.04 35.3634C141.032 35.3994 141.023 35.4344 141.014 35.4695L141.01 35.4802C141.001 35.5126 140.991 35.5413 140.982 35.5701L140.97 35.6015C140.962 35.624 140.953 35.6464 140.944 35.6689L140.93 35.7021C140.921 35.7237 140.911 35.7453 140.9 35.7659L140.885 35.7965C140.873 35.8207 140.86 35.8441 140.846 35.8675L140.837 35.8854C140.819 35.9151 140.802 35.9438 140.783 35.9708L140.774 35.9834C140.756 36.0085 140.74 36.0301 140.724 36.0507L140.706 36.0732C140.689 36.0939 140.675 36.1109 140.66 36.128L140.636 36.1532C140.625 36.1657 140.613 36.1774 140.6 36.19L140.595 42.9768C140.595 43.2185 140.465 43.4431 140.256 43.5644L131.855 48.4456C131.855 48.4456 131.722 48.5264 131.533 48.5264L131.535 48.5238Z" fill="#DCFFE9"/>
<path d="M132.173 41.1388L132.165 46.7432L139.326 42.5817L139.334 36.9736L132.256 41.0984C132.229 41.1136 132.201 41.128 132.173 41.1397V41.1388Z" fill="white"/>
<path d="M128.906 30.2796C127.731 30.9032 126.922 31.7854 126.503 32.9022C126.189 33.7368 126.219 34.4107 126.219 34.417C126.22 34.4322 126.22 34.4448 126.22 34.461L126.212 36.1608C126.21 36.9865 126.816 38.0359 127.537 38.4518C127.777 38.5902 127.956 38.6109 128.027 38.5704C128.096 38.5309 128.167 38.3692 128.167 38.0987L128.175 36.1429C128.175 36.1159 128.176 36.088 128.181 36.0566C128.187 35.7161 128.243 35.0342 128.533 34.2355C128.901 33.2229 129.733 31.8079 131.609 30.8088L136.252 28.1809L134.396 27.1729L128.905 30.2805L128.906 30.2796Z" fill="#54EF93"/>
<path d="M125.338 40.0786C125.424 40.0283 125.527 40.0292 125.614 40.0786L127.74 41.3301C127.868 41.4038 127.947 41.5421 127.947 41.6895L127.949 45.0191L130.661 46.595L130.656 41.3696C130.397 41.3292 130.134 41.234 129.876 41.0839C129.321 40.7641 128.807 40.2089 128.448 39.5476C128.235 39.6608 127.997 39.7183 127.742 39.7183C127.4 39.7183 127.037 39.6123 126.688 39.4111C126.108 39.0759 125.577 38.4902 125.215 37.7894C124.788 37.9987 124.252 37.9843 123.729 37.748L123.733 42.5565L125.202 43.41L125.199 40.3158C125.199 40.2161 125.25 40.1262 125.338 40.0768V40.0786Z" fill="white"/>
<path d="M137.76 28.7635C137.748 28.7716 137.735 28.7797 137.722 28.7869L132.202 31.9107C130.992 32.5531 130.163 33.457 129.734 34.5998C129.412 35.4551 129.443 36.1451 129.443 36.1523C129.444 36.1675 129.444 36.1801 129.444 36.1972L129.436 37.9375C129.433 38.7838 130.055 39.8592 130.793 40.2851C131.04 40.4279 131.224 40.4486 131.298 40.4064C131.333 40.3866 131.366 40.3354 131.392 40.2653L131.399 38.1001C131.392 37.9455 131.378 37.0929 131.758 36.048C132.134 35.013 132.986 33.5648 134.904 32.5423L139.68 29.8048L137.76 28.7617L137.76 28.7635Z" fill="#54EF93"/>
<path d="M144.437 52.1348C147.911 52.1348 150.727 49.3191 150.727 45.8457C150.727 42.3723 147.911 39.5566 144.437 39.5566C140.964 39.5566 138.148 42.3723 138.148 45.8457C138.148 49.3191 140.964 52.1348 144.437 52.1348Z" fill="#004C22"/>
<g filter="url(#filter0_dii_606_380)">
<path d="M147.286 45.8575C147.286 45.7245 147.276 45.5942 147.259 45.4666L148.093 44.6311L147.317 43.287L146.159 43.597C146.067 43.5278 145.972 43.4649 145.872 43.4074C145.761 43.3436 145.646 43.2861 145.526 43.2376L145.217 42.0849L145.214 42.0732H143.661L143.345 43.2538C143.129 43.3463 142.927 43.4649 142.743 43.6051L141.559 43.2879L140.783 44.632L141.649 45.499C141.634 45.6167 141.625 45.7371 141.625 45.8584C141.625 45.9734 141.633 46.0866 141.646 46.1971L140.783 47.0605L141.559 48.4054H141.563L142.721 48.0937C142.913 48.2437 143.125 48.3695 143.352 48.4656L143.661 49.6201H145.214L145.519 48.4818C145.641 48.4324 145.76 48.374 145.872 48.3084C145.98 48.2464 146.083 48.1772 146.181 48.1018L147.316 48.4054L148.092 47.0605L147.26 46.2285C147.277 46.1072 147.286 45.9841 147.286 45.8584V45.8575ZM144.437 47.2959C143.636 47.2959 142.987 46.6463 142.987 45.8458C142.987 45.0453 143.636 44.3957 144.437 44.3957C145.237 44.3957 145.887 45.0453 145.887 45.8458C145.887 46.6463 145.237 47.2959 144.437 47.2959Z" fill="white"/>
</g>
</g>
<rect x="34.1211" y="142" width="60" height="60" rx="30" fill="white"/>
<rect x="34.6211" y="142.5" width="59" height="59" rx="29.5" stroke="black" stroke-opacity="0.1"/>
<rect x="294.121" y="6" width="60" height="60" rx="30" fill="white"/>
<rect x="294.621" y="6.5" width="59" height="59" rx="29.5" stroke="black" stroke-opacity="0.1"/>
<path d="M338.121 44.1364L338.121 35.2367C338.121 35.0746 337.945 34.9736 337.805 35.0553L324.127 43.0321V52.1864L331.145 48.1599L331.146 48.1614L338.121 44.1364Z" fill="#4242FF"/>
<path d="M332.045 47.5995L318.151 39.5357V32.1637L310.121 28.1387V36.1504V44.1621L317.096 48.1871V48.1886L324.093 52.2136V52.1267L324.121 52.2122L332.045 47.5995Z" fill="#3277FF"/>
<path d="M310.139 28.1251L310.121 37.2767L324.132 29.2305L329.885 32.5399C330.02 32.6174 330.185 32.6176 330.32 32.5402L337.573 28.3814C337.772 28.2673 337.774 27.9806 337.576 27.8647L331.055 24.0442V24.0456L324.044 20L317.08 24.0456L317.083 24.0471L310.121 28.0913" fill="#0ACAAA"/>
<rect x="358.121" y="142" width="60" height="60" rx="30" fill="white"/>
<rect x="358.621" y="142.5" width="59" height="59" rx="29.5" stroke="black" stroke-opacity="0.1"/>
<path d="M392.395 172.844L384.143 160.931C383.739 160.348 383.074 160 382.365 160H377.563C376.767 160 376.121 160.646 376.121 161.442V182.558C376.121 183.354 376.767 184 377.563 184H382.405C383.201 184 383.847 183.354 383.847 182.558V171.156L392.099 183.069C392.503 183.652 393.168 184 393.877 184H398.679C399.476 184 400.121 183.354 400.121 182.558V161.442C400.121 160.646 399.476 160 398.679 160H393.837C393.041 160 392.395 160.646 392.395 161.442V172.844Z" fill="#03C75A"/>
<path d="M61.0159 175.697L60.6005 174.139H58.8002L58.3944 175.697H56.9609L58.743 169.223H60.7417L62.5238 175.697H61.0159ZM59.7433 170.569H59.6679L59.0282 173.018H60.3867L59.7433 170.569Z" fill="#465AFF"/>
<path d="M63.5269 175.697V169.223H66.0704C66.3627 169.218 66.6534 169.267 66.9276 169.367C67.1684 169.456 67.3858 169.597 67.5638 169.78C67.7404 169.966 67.8737 170.188 67.9545 170.43C68.1306 170.986 68.1306 171.582 67.9545 172.138C67.8737 172.38 67.7404 172.602 67.5638 172.788C67.3859 172.971 67.1685 173.112 66.9276 173.201C66.6534 173.301 66.3627 173.35 66.0704 173.345H64.9495V175.697H63.5269ZM64.9495 172.217H65.7126C66.0455 172.217 66.2763 172.155 66.405 172.031C66.5337 171.908 66.598 171.703 66.598 171.419V171.141C66.598 170.856 66.5337 170.652 66.405 170.528C66.2763 170.404 66.0455 170.343 65.7126 170.343H64.9495V172.217Z" fill="#465AFF"/>
<path d="M68.6338 175.697V174.669H70.0342V170.251H68.6338V169.223H72.8288V170.253H71.4283V174.671H72.8288V175.697H68.6338Z" fill="#465AFF"/>
<path d="M78.9166 175.718L64.7059 183.983C64.6801 183.998 64.6587 184.02 64.6438 184.046C64.6289 184.071 64.6211 184.101 64.6211 184.13V188.661C64.6211 188.685 64.6261 188.709 64.6359 188.731C64.6457 188.752 64.66 188.772 64.6779 188.788C64.6958 188.804 64.7169 188.816 64.7397 188.823C64.7626 188.831 64.7868 188.833 64.8106 188.83C65.0598 188.803 65.3005 188.725 65.5175 188.6L78.2142 181.299C78.4901 181.14 78.7191 180.912 78.8783 180.637C79.0375 180.362 79.1212 180.05 79.1211 179.732V175.835C79.1211 175.811 79.1148 175.788 79.1028 175.767C79.0908 175.746 79.0735 175.729 79.0528 175.717C79.0321 175.705 79.0086 175.699 78.9846 175.699C78.9607 175.699 78.9373 175.706 78.9166 175.718Z" fill="url(#paint5_linear_606_380)"/>
<path d="M65.5405 188.586L69.0896 186.54L54.6494 178.161V165.833L50.6766 163.842C50.5011 164.011 50.3615 164.214 50.266 164.438C50.1706 164.662 50.1213 164.903 50.1211 165.147V179.695C50.1209 180.013 50.2047 180.326 50.3639 180.602C50.5231 180.878 50.7522 181.107 51.0281 181.266L63.7264 188.586C64.0022 188.745 64.315 188.829 64.6334 188.829C64.9519 188.829 65.2647 188.745 65.5405 188.586Z" fill="url(#paint6_linear_606_380)"/>
<path d="M65.5061 156.244C65.231 156.084 64.9189 156 64.6011 156C64.2834 156 63.9713 156.084 63.6961 156.244L51.0261 163.594C50.7509 163.753 50.5224 163.983 50.3635 164.26C50.2046 164.537 50.121 164.851 50.1211 165.171V169.314L64.6192 160.937L74.2191 166.492C74.3297 166.556 74.455 166.589 74.5826 166.589C74.7102 166.589 74.8356 166.556 74.9462 166.492L78.7355 164.306C78.7695 164.286 78.7978 164.258 78.8175 164.224C78.8371 164.19 78.8475 164.151 78.8475 164.112C78.8475 164.072 78.8371 164.033 78.8175 163.999C78.7978 163.965 78.7695 163.937 78.7355 163.917L65.5061 156.244Z" fill="url(#paint7_linear_606_380)"/>
<defs>
<filter id="filter0_dii_606_380" x="130.783" y="37.0732" width="27.3105" height="27.5469" filterUnits="userSpaceOnUse" color-interpolation-filters="sRGB">
<feFlood flood-opacity="0" result="BackgroundImageFix"/>
<feColorMatrix in="SourceAlpha" type="matrix" values="0 0 0 0 0 0 0 0 0 0 0 0 0 0 0 0 0 0 127 0" result="hardAlpha"/>
<feOffset dy="5"/>
<feGaussianBlur stdDeviation="5"/>
<feComposite in2="hardAlpha" operator="out"/>
<feColorMatrix type="matrix" values="0 0 0 0 0 0 0 0 0 0 0 0 0 0 0 0 0 0 0.1 0"/>
<feBlend mode="normal" in2="BackgroundImageFix" result="effect1_dropShadow_606_380"/>
<feBlend mode="normal" in="SourceGraphic" in2="effect1_dropShadow_606_380" result="shape"/>
<feColorMatrix in="SourceAlpha" type="matrix" values="0 0 0 0 0 0 0 0 0 0 0 0 0 0 0 0 0 0 127 0" result="hardAlpha"/>
<feOffset dy="-1"/>
<feGaussianBlur stdDeviation="0.5"/>
<feComposite in2="hardAlpha" operator="arithmetic" k2="-1" k3="1"/>
<feColorMatrix type="matrix" values="0 0 0 0 0 0 0 0 0 0 0 0 0 0 0 0 0 0 0.15 0"/>
<feBlend mode="normal" in2="shape" result="effect2_innerShadow_606_380"/>
<feColorMatrix in="SourceAlpha" type="matrix" values="0 0 0 0 0 0 0 0 0 0 0 0 0 0 0 0 0 0 127 0" result="hardAlpha"/>
<feOffset dy="1"/>
<feGaussianBlur stdDeviation="0.5"/>
<feComposite in2="hardAlpha" operator="arithmetic" k2="-1" k3="1"/>
<feColorMatrix type="matrix" values="0 0 0 0 1 0 0 0 0 1 0 0 0 0 1 0 0 0 0.15 0"/>
<feBlend mode="normal" in2="effect2_innerShadow_606_380" result="effect3_innerShadow_606_380"/>
</filter>
<linearGradient id="paint0_linear_606_380" x1="236.467" y1="204.547" x2="228.906" y2="213.449" gradientUnits="userSpaceOnUse">
<stop stop-color="#465AFF"/>
<stop offset="0.85" stop-color="#465AFF"/>
<stop offset="1" stop-color="#3B50FC"/>
</linearGradient>
<linearGradient id="paint1_linear_606_380" x1="214.21" y1="198.182" x2="224.409" y2="214.556" gradientUnits="userSpaceOnUse">
<stop stop-color="#4474FF"/>
<stop offset="0.23" stop-color="#507DFF"/>
<stop offset="1" stop-color="#507DFF"/>
</linearGradient>
<linearGradient id="paint2_linear_606_380" x1="228.486" y1="191.694" x2="216.401" y2="207.495" gradientUnits="userSpaceOnUse">
<stop stop-color="#00D296"/>
<stop offset="1" stop-color="#41AFFF"/>
</linearGradient>
<linearGradient id="paint3_linear_606_380" x1="230.865" y1="206.73" x2="222.474" y2="198.34" gradientUnits="userSpaceOnUse">
<stop stop-color="#465AFF"/>
<stop offset="1" stop-color="#4678FF"/>
</linearGradient>
<linearGradient id="paint4_linear_606_380" x1="230.864" y1="206.73" x2="222.474" y2="198.34" gradientUnits="userSpaceOnUse">
<stop stop-color="#465AFF"/>
<stop offset="1" stop-color="#4678FF"/>
</linearGradient>
<linearGradient id="paint5_linear_606_380" x1="77.1206" y1="176.067" x2="68.0062" y2="186.827" gradientUnits="userSpaceOnUse">
<stop stop-color="#465AFF"/>
<stop offset="0.85" stop-color="#465AFF"/>
<stop offset="1" stop-color="#3B50FC"/>
</linearGradient>
<linearGradient id="paint6_linear_606_380" x1="50.2272" y1="168.324" x2="62.562" y2="188.127" gradientUnits="userSpaceOnUse">
<stop stop-color="#4474FF"/>
<stop offset="0.23" stop-color="#507DFF"/>
<stop offset="1" stop-color="#507DFF"/>
</linearGradient>
<linearGradient id="paint7_linear_606_380" x1="67.4401" y1="160.484" x2="52.7499" y2="179.572" gradientUnits="userSpaceOnUse">
<stop stop-color="#00D296"/>
<stop offset="1" stop-color="#41AFFF"/>
</linearGradient>
<clipPath id="clip0_606_380">
<rect width="24" height="27.138" fill="white" transform="translate(214.121 188)"/>
</clipPath>
<clipPath id="clip1_606_380">
<rect x="108.5" y="12.5" width="47" height="47" rx="10.332" fill="white"/>
</clipPath>
</defs>
</svg>
